<svg width="139" height="39" viewBox="0 0 139 39" fill="none" xmlns="http://www.w3.org/2000/svg">
<path d="M6.66667 26.1665L7.12667 28.9298C7.57001 31.5898 7.79334 32.9198 8.725 33.7098C9.65834 34.4998 11.0067 34.4998 13.7033 34.4998H16.2967C18.9933 34.4998 20.3433 34.4998 21.275 33.7098C22.2083 32.9198 22.43 31.5898 22.8733 28.9298L23.3333 26.1665" fill="#59150E"/>
<path d="M6.66667 26.1665L7.12667 28.9298C7.57001 31.5898 7.79334 32.9198 8.725 33.7098C9.65834 34.4998 11.0067 34.4998 13.7033 34.4998H16.2967C18.9933 34.4998 20.3433 34.4998 21.275 33.7098C22.2083 32.9198 22.43 31.5898 22.8733 28.9298L23.3333 26.1665" stroke="#59150E" stroke-width="4.02775" stroke-linecap="round" stroke-linejoin="round"/>
<path d="M17.5 7C18.3333 5.33333 20 4.5 21.6667 4.5L17.5 7Z" fill="#59150E"/>
<path d="M17.5 7C18.3333 5.33333 20 4.5 21.6667 4.5" stroke="#59150E" stroke-width="4.02775" stroke-linecap="round"/>
<path d="M15 12.8332C16.841 12.8332 18.3333 11.3408 18.3333 9.49984C18.3333 7.65889 16.841 6.1665 15 6.1665C13.1591 6.1665 11.6667 7.65889 11.6667 9.49984C11.6667 11.3408 13.1591 12.8332 15 12.8332Z" fill="#59150E" stroke="#59150E" stroke-width="4.02775" stroke-linecap="round" stroke-linejoin="round"/>
<path d="M10.6589 9.956C9.20154 10.7615 7.98634 11.9599 7.15997 13.4275L6.92287 13.8487L6.446 13.9271C5.51901 14.0796 4.63615 14.4314 3.85836 14.9583C3.08057 15.4852 2.42638 16.1746 1.94094 16.9789C1.45551 17.7833 1.15039 18.6833 1.04665 19.6171C0.942908 20.5508 1.04302 21.4959 1.34007 22.3871C1.63712 23.2784 2.12403 24.0946 2.7672 24.7793C3.41037 25.4641 4.19447 26.0011 5.06539 26.3534C5.9363 26.7057 6.87328 26.8647 7.81165 26.8196C8.75002 26.7745 9.66743 26.5264 10.5006 26.0922L10.9301 25.8684L11.3731 26.0642C12.5146 26.569 13.7494 26.8287 14.9975 26.8266L15.0004 26.8266C16.2489 26.8281 17.484 26.5688 18.6265 26.0654L19.069 25.8704L19.4979 26.0939C20.3312 26.5281 21.2489 26.7764 22.1876 26.8214C23.1262 26.8665 24.0634 26.7074 24.9346 26.355C25.8057 26.0026 26.59 25.4653 27.2334 24.7803C27.8767 24.0953 28.3637 23.2789 28.6608 22.3873C28.9578 21.4958 29.0579 20.5504 28.954 19.6165C28.8502 18.6825 28.5449 17.7822 28.0592 16.9777C27.5736 16.1732 26.9191 15.4836 26.1411 14.9567C25.363 14.4297 24.4798 14.0779 23.5526 13.9255L23.0757 13.8471L22.8386 13.4261C22.012 11.9588 20.7968 10.7609 19.3395 9.95577V11.5043C20.5214 12.316 21.4569 13.4441 22.035 14.7647L22.0355 14.766C22.0858 14.8813 22.168 14.9798 22.2723 15.0499C22.3767 15.1201 22.499 15.1589 22.6247 15.1619L22.6254 15.1619C23.4343 15.1816 24.2273 15.3908 24.9407 15.7726C25.6541 16.1544 26.268 16.6982 26.7331 17.3604C27.1982 18.0225 27.5014 18.7845 27.6185 19.5851C27.7357 20.3858 27.6634 21.2027 27.4074 21.9703C27.1515 22.7379 26.7191 23.4348 26.1449 24.005L25.4354 23.2905L26.1449 24.005C25.5708 24.5751 24.8709 25.0027 24.1016 25.2532C23.3322 25.5038 22.5148 25.5704 21.715 25.4477C20.9152 25.325 20.1553 25.0165 19.4964 24.5468L19.4951 24.5458C19.3926 24.4726 19.2713 24.4301 19.1455 24.4236C19.0197 24.417 18.8947 24.4466 18.7852 24.5089L18.7849 24.5091C17.6698 25.1424 16.379 25.5071 14.9992 25.5071M10.6589 9.956L14.9992 24.5002M10.6589 9.956V11.5043V9.956ZM14.9992 25.5071V24.5002M14.9992 25.5071C14.9997 25.5071 15.0002 25.5071 15.0008 25.5071L14.9992 24.5002M14.9992 25.5071C13.672 25.5089 12.3671 25.1648 11.2133 24.5089L11.7109 23.6335C12.7131 24.2032 13.8464 24.5019 14.9992 24.5002" fill="#59150E" stroke="#59150E" stroke-width="2.01388"/>
<path d="M47.2067 16.6738L47.836 16.5479C49.4198 16.5689 50.6575 16.957 51.5491 17.7122C52.4406 18.4569 52.8864 19.5216 52.8864 20.9061C52.8864 22.5948 52.383 24.1577 51.376 25.5946C50.0229 27.5351 48.1192 28.8882 45.6648 29.6539C44.1544 30.1154 43.1894 30.2045 42.7698 29.9213C42.5181 29.7535 42.3922 29.4546 42.3922 29.0245L42.5496 16.4063V14.6914C42.5496 13.1915 42.5234 11.9643 42.4709 11.0098C42.429 10.0553 42.3922 9.25812 42.3608 8.6183C42.3293 7.97847 42.2978 7.39634 42.2664 6.87189C42.2454 6.33695 42.2664 6.00131 42.3293 5.86495C42.4027 5.71811 42.4971 5.60797 42.6125 5.53455C42.8747 5.35624 43.609 5.1517 44.8152 4.92095C46.0319 4.69019 46.9707 4.57481 47.6315 4.57481C51.0613 4.57481 52.7763 6.02229 52.7763 8.91723C52.7763 11.2668 51.5386 13.4065 49.0632 15.3365C48.4863 15.7875 47.8675 16.2333 47.2067 16.6738ZM43.9656 28.4424C44.8362 28.4109 45.6648 28.2169 46.4515 27.8603C47.343 27.4407 48.0615 27.0264 48.6069 26.6173C49.1524 26.1978 49.6401 25.7153 50.0701 25.1698C51.0141 23.9741 51.4862 22.6105 51.4862 21.0792C51.4862 19.9988 51.0613 19.1702 50.2117 18.5933C49.4461 18.0793 48.4811 17.8223 47.3168 17.8223C46.3099 17.8223 45.4707 17.9377 44.7995 18.1685C44.4009 18.3048 44.0862 18.4255 43.8554 18.5303C43.8554 18.7716 43.8607 19.0286 43.8712 19.3013C43.8712 20.046 43.8712 20.8589 43.8712 21.74C43.8817 22.621 43.8922 23.5021 43.9026 24.3832C43.9236 26.2817 43.9446 27.6347 43.9656 28.4424ZM43.8554 17.0671C45.2924 16.7734 46.8186 15.9134 48.4339 14.4869C49.5877 13.4694 50.4163 12.3366 50.9197 11.0884C51.1715 10.4381 51.2973 9.78782 51.2973 9.1375C51.2973 8.48719 51.1925 7.9575 50.9827 7.54843C50.7834 7.12887 50.5107 6.78798 50.1645 6.52576C49.5037 6.05375 48.5964 5.81775 47.4427 5.81775C46.1315 5.81775 44.962 6.05375 43.9341 6.52576C43.9341 6.66211 43.9289 6.84042 43.9184 7.06069C43.9079 7.43829 43.8974 8.00994 43.8869 8.77563C43.8659 10.307 43.8554 12.001 43.8554 13.8575V17.0671ZM61.9646 26.7747C61.9541 26.1978 61.9541 25.4898 61.9646 24.6506C61.5136 24.4933 60.9419 24.4146 60.2497 24.4146C59.3161 24.4146 58.5505 24.6402 57.9526 25.0912C57.6589 25.3219 57.4229 25.6051 57.2446 25.9408C57.0663 26.2659 56.9771 26.6907 56.9771 27.2152C56.9771 27.7291 57.1554 28.1592 57.512 28.5053C57.8687 28.8515 58.3931 29.0245 59.0854 29.0245C59.7777 29.0245 60.5486 28.5525 61.3982 27.6085C61.6394 27.3463 61.8282 27.0683 61.9646 26.7747ZM62.9715 30.3304C62.3422 30.3304 62.0275 29.8532 62.0275 28.8987C62.0275 28.8357 62.0223 28.6574 62.0118 28.3637C61.9174 28.4791 61.8125 28.605 61.6971 28.7413C60.7531 29.8112 59.7252 30.3461 58.6134 30.3461C57.7218 30.3461 56.9824 30.0629 56.395 29.4965C55.7866 28.9092 55.4824 28.1592 55.4824 27.2467C55.4824 25.9775 55.9754 24.9548 56.9614 24.1786C57.4019 23.8325 57.8949 23.5703 58.4403 23.392C58.9962 23.2137 59.6151 23.1245 60.2969 23.1245C60.8633 23.1245 61.4192 23.2189 61.9646 23.4077V21.74C61.9646 20.8169 61.7706 20.1247 61.3825 19.6632C61.0049 19.2016 60.6115 18.9709 60.2025 18.9709C59.7934 18.9709 59.4577 19.0233 59.1955 19.1282C58.9438 19.2331 58.7183 19.3852 58.519 19.5845C58.0784 20.0145 57.8267 20.5495 57.7638 21.1893C57.7952 21.5249 57.7271 21.7609 57.5592 21.8973C57.3914 22.0232 57.2079 22.0861 57.0086 22.0861C56.4422 22.0861 56.1695 21.7085 56.1904 20.9533C56.2114 20.1666 56.61 19.4429 57.3862 18.7821C58.1833 18.1003 59.0749 17.7594 60.0609 17.7594C61.5293 17.7594 62.5205 18.4884 63.0345 19.9464C63.2128 20.4708 63.3019 21.0477 63.3019 21.677V23.2976L63.2862 25.9408V27.3411C63.2862 27.9704 63.3596 28.4791 63.5065 28.8672C63.6638 29.2553 63.7425 29.5332 63.7425 29.7011C63.7425 29.8584 63.6638 30 63.5065 30.1259C63.3491 30.2622 63.1708 30.3304 62.9715 30.3304ZM74.7401 18.1685C74.9499 18.1685 75.1335 18.2471 75.2908 18.4045C75.4481 18.5618 75.5268 18.7663 75.5268 19.0181C75.5268 19.2593 75.4062 19.553 75.1649 19.8992C74.9342 20.2348 74.6457 20.5967 74.2996 20.9848C73.9639 21.3624 73.6073 21.7452 73.2297 22.1333C72.9046 22.4689 72.6109 22.7836 72.3486 23.0773C72.7892 24.4199 73.5549 25.8674 74.6457 27.4197C74.9499 27.8393 75.1859 28.1959 75.3537 28.4896C75.5216 28.7728 75.6055 29.014 75.6055 29.2133C75.6055 29.4021 75.5111 29.5909 75.3223 29.7797C75.1335 29.9685 74.9394 30.0629 74.7401 30.0629C74.2786 30.0629 73.9587 29.8532 73.7804 29.4336C73.6126 29.0036 73.3975 28.5158 73.1353 27.9704C72.8731 27.4145 72.6056 26.8691 72.3329 26.3341C71.8819 25.453 71.4938 24.7346 71.1686 24.1786C70.8854 24.4514 70.576 24.7398 70.2404 25.044C69.7684 25.474 69.4065 25.8097 69.1548 26.0509C69.0918 26.1138 69.0289 26.1715 68.966 26.224V26.2554C68.966 26.5177 68.9712 26.8061 68.9817 27.1208C68.9922 27.425 69.0027 27.7344 69.0132 28.0491C69.0237 28.3532 69.0289 28.6574 69.0289 28.9616C69.0394 29.2553 68.9502 29.4913 68.7614 29.6696C68.5726 29.8479 68.3681 29.9371 68.1478 29.9371C67.9381 29.9371 67.7493 29.8584 67.5814 29.7011C67.4136 29.5437 67.3402 29.2186 67.3612 28.7256C67.3821 28.2221 67.3979 27.5613 67.4084 26.7432C67.4293 25.925 67.4398 25.0492 67.4398 24.1157C67.4608 21.3361 67.4713 19.296 67.4713 17.9954C67.4713 16.6843 67.466 15.3155 67.4556 13.889C67.4451 12.4625 67.4293 11.0884 67.4084 9.76684C67.3454 6.79847 67.2405 4.61677 67.0937 3.22174C67.0622 2.88609 67.1409 2.6396 67.3297 2.48227C67.529 2.31445 67.7493 2.23054 67.9905 2.23054C68.2422 2.23054 68.4677 2.31445 68.667 2.48227C68.8768 2.6396 68.9712 2.91756 68.9502 3.31614C68.9397 3.71472 68.9293 4.22343 68.9188 4.84228C68.9188 5.46113 68.9188 6.13766 68.9188 6.87189C68.9397 9.07457 68.9502 10.7056 68.9502 11.765C68.9502 12.8139 68.945 13.9152 68.9345 15.069C68.9345 16.2123 68.9293 17.3661 68.9188 18.5303C68.9083 20.9113 68.9188 22.9462 68.9502 24.6349C70.0201 23.6385 71.1844 22.3326 72.4431 20.7173C73.0514 19.9411 73.4395 19.3747 73.6073 19.0181C73.8905 18.4517 74.2681 18.1685 74.7401 18.1685ZM84.8882 23.2032C84.9092 21.3781 84.5263 20.1299 83.7396 19.4586C83.425 19.1754 83.0421 19.0338 82.5911 19.0338C82.1401 19.0338 81.7677 19.1177 81.474 19.2855C81.1803 19.4534 80.9181 19.6789 80.6874 19.9621C80.4671 20.2453 80.2783 20.5704 80.121 20.9376C79.9741 21.2942 79.8535 21.6613 79.7591 22.0389C79.6647 22.4375 79.5965 22.8308 79.5545 23.2189L81.71 23.3133C83.1155 23.3133 84.1749 23.2766 84.8882 23.2032ZM79.4916 24.572C79.5126 26.0194 79.7748 27.126 80.2783 27.8917C80.8237 28.7099 81.5946 29.1189 82.5911 29.1189C83.5036 29.1189 84.1697 28.6679 84.5892 27.7659C84.8515 27.1785 85.1766 26.8848 85.5647 26.8848C85.743 26.8848 85.8899 26.9425 86.0052 27.0579C86.1311 27.1732 86.1888 27.3778 86.1783 27.6715C86.1678 27.9547 86.0629 28.2641 85.8636 28.5997C85.6748 28.9354 85.4074 29.2343 85.0612 29.4965C84.306 30.0839 83.3987 30.3776 82.3394 30.3776C81.1961 30.3776 80.2101 29.8899 79.3815 28.9144C78.5109 27.8865 78.0756 26.6645 78.0756 25.2485C78.0756 23.8325 78.1962 22.684 78.4375 21.8029C78.6892 20.9113 79.0196 20.1719 79.4287 19.5845C80.2258 18.3992 81.2223 17.8066 82.418 17.8066C83.9494 17.8066 85.0245 18.4097 85.6434 19.616C86.0734 20.4551 86.3042 21.6875 86.3356 23.3133C86.3461 23.7748 86.2727 24.0842 86.1154 24.2416C85.958 24.3989 85.6381 24.4776 85.1556 24.4776L79.4916 24.572ZM105.703 10.2703L105.719 15.9501C105.719 19.9149 105.803 24.273 105.971 29.0245C105.981 29.3602 105.892 29.6067 105.703 29.764C105.525 29.9213 105.321 30 105.09 30C104.859 30 104.649 29.9108 104.461 29.7325C104.272 29.5542 104.177 29.2972 104.177 28.9616C104.335 24.2416 104.413 20.3082 104.413 17.1615V9.01163C104.413 8.40328 104.408 7.83163 104.398 7.29669C104.167 8.18825 103.868 9.34728 103.501 10.7738C102.662 13.91 102.074 16.0812 101.739 17.2874C101.403 18.4831 101.067 19.6632 100.732 20.8274C100.039 23.2294 99.3944 25.3377 98.7965 27.1523C98.7336 27.362 98.6077 27.5194 98.4189 27.6243C98.2406 27.7291 98.0675 27.7816 97.8997 27.7816C97.5745 27.7816 97.3543 27.5718 97.2389 27.1523C97.1865 26.9844 97.0606 26.5806 96.8613 25.9408C96.6725 25.2905 96.4313 24.4933 96.1376 23.5493C95.8544 22.5948 95.5344 21.5302 95.1778 20.3554C94.8317 19.1702 94.4698 17.9587 94.0922 16.721C93.7251 15.4833 93.3632 14.2561 93.0066 13.0394C92.65 11.8227 92.3248 10.7004 92.0311 9.67244C91.7899 8.82283 91.5854 8.08861 91.4175 7.46976L91.449 11.3716C91.449 16.1231 91.4962 20.0512 91.5906 23.156C91.6955 26.2607 91.7532 28.0648 91.7637 28.5683C91.7742 29.0717 91.7479 29.3812 91.685 29.4965C91.6326 29.6119 91.5591 29.7063 91.4647 29.7797C91.0557 30.1259 90.6518 30.1154 90.2533 29.7483C90.0645 29.57 89.9806 29.2553 90.0015 28.8043C90.033 28.3532 90.0592 27.7921 90.0802 27.1208C90.1012 26.439 90.1169 25.7205 90.1274 24.9653C90.1694 23.1822 90.1903 21.5302 90.1903 20.0093L90.0015 5.69188C90.0015 5.21988 90.1117 4.88948 90.3319 4.70068C90.5522 4.50139 90.8092 4.40175 91.1029 4.40175C91.6588 4.40175 92.0416 4.73739 92.2514 5.40868C92.2724 5.47162 92.3248 5.66042 92.4087 5.97509C92.5031 6.27927 92.6238 6.68309 92.7706 7.18656C92.9175 7.67954 93.0853 8.25643 93.2741 8.91723C93.4734 9.56755 93.6831 10.2703 93.9034 11.0255C94.1237 11.7807 94.3544 12.5726 94.5957 13.4013C95.4348 16.2857 96.5938 20.2348 98.0728 25.2485C98.849 23.0353 100.281 18.0164 102.368 10.1916C102.777 8.63928 103.186 7.05545 103.595 5.44015C103.784 4.71641 104.219 4.35455 104.901 4.35455C105.174 4.35455 105.389 4.4909 105.546 4.76361C105.714 5.02584 105.787 5.40868 105.766 5.91215C105.724 6.61491 105.703 8.06763 105.703 10.2703ZM116.088 26.7747C116.077 26.1978 116.077 25.4898 116.088 24.6506C115.636 24.4933 115.065 24.4146 114.373 24.4146C113.439 24.4146 112.673 24.6402 112.076 25.0912C111.782 25.3219 111.546 25.6051 111.367 25.9408C111.189 26.2659 111.1 26.6907 111.1 27.2152C111.1 27.7291 111.278 28.1592 111.635 28.5053C111.992 28.8515 112.516 29.0245 113.208 29.0245C113.901 29.0245 114.672 28.5525 115.521 27.6085C115.762 27.3463 115.951 27.0683 116.088 26.7747ZM117.094 30.3304C116.465 30.3304 116.15 29.8532 116.15 28.8987C116.15 28.8357 116.145 28.6574 116.135 28.3637C116.04 28.4791 115.935 28.605 115.82 28.7413C114.876 29.8112 113.848 30.3461 112.736 30.3461C111.845 30.3461 111.105 30.0629 110.518 29.4965C109.91 28.9092 109.605 28.1592 109.605 27.2467C109.605 25.9775 110.098 24.9548 111.084 24.1786C111.525 23.8325 112.018 23.5703 112.563 23.392C113.119 23.2137 113.738 23.1245 114.42 23.1245C114.986 23.1245 115.542 23.2189 116.088 23.4077V21.74C116.088 20.8169 115.893 20.1247 115.505 19.6632C115.128 19.2016 114.734 18.9709 114.325 18.9709C113.916 18.9709 113.581 19.0233 113.318 19.1282C113.067 19.2331 112.841 19.3852 112.642 19.5845C112.201 20.0145 111.95 20.5495 111.887 21.1893C111.918 21.5249 111.85 21.7609 111.682 21.8973C111.514 22.0232 111.331 22.0861 111.131 22.0861C110.565 22.0861 110.292 21.7085 110.313 20.9533C110.334 20.1666 110.733 19.4429 111.509 18.7821C112.306 18.1003 113.198 17.7594 114.184 17.7594C115.652 17.7594 116.643 18.4884 117.157 19.9464C117.336 20.4708 117.425 21.0477 117.425 21.677V23.2976L117.409 25.9408V27.3411C117.409 27.9704 117.483 28.4791 117.629 28.8672C117.787 29.2553 117.865 29.5332 117.865 29.7011C117.865 29.8584 117.787 30 117.629 30.1259C117.472 30.2622 117.294 30.3304 117.094 30.3304ZM121.516 15.0847C121.516 14.7176 121.605 14.4449 121.783 14.2666C121.961 14.0883 122.155 13.9991 122.365 13.9991C122.575 13.9991 122.764 14.0883 122.932 14.2666C123.099 14.4449 123.162 14.7176 123.12 15.0847C123.026 16.0602 122.968 17.193 122.947 18.4831C123.807 18.4831 124.458 18.4569 124.898 18.4045C125.339 18.352 125.653 18.3258 125.842 18.3258C126.555 18.3048 126.912 18.5671 126.912 19.1125C126.912 19.4271 126.729 19.6474 126.361 19.7733C126.236 19.8152 126.089 19.831 125.921 19.8205C125.753 19.81 125.57 19.8048 125.37 19.8048C125.181 19.7943 124.993 19.789 124.804 19.789C124.479 19.789 124.164 19.789 123.86 19.789C123.566 19.789 123.304 19.7943 123.073 19.8048C123.031 19.8048 122.984 19.8048 122.932 19.8048C122.932 19.8257 122.932 19.8415 122.932 19.852C122.932 24.1944 122.994 26.6435 123.12 27.1995C123.246 27.7554 123.383 28.1539 123.529 28.3952C123.792 28.8147 124.127 29.0245 124.536 29.0245C125.197 29.0245 125.643 28.6994 125.874 28.0491C125.968 27.5246 126.236 27.2624 126.676 27.2624C126.833 27.2624 126.97 27.3306 127.085 27.4669C127.211 27.5928 127.274 27.7816 127.274 28.0333C127.274 28.2851 127.195 28.5578 127.038 28.8515C126.881 29.1452 126.671 29.4021 126.409 29.6224C125.832 30.1049 125.187 30.3461 124.473 30.3461C123.173 30.3461 122.276 29.6276 121.783 28.1907C121.605 27.6662 121.516 27.0211 121.516 26.2554V19.9149C121.295 19.9254 121.054 19.9411 120.792 19.9621C120.467 19.9726 120.22 19.8939 120.052 19.7261C119.895 19.5478 119.816 19.3642 119.816 19.1754C119.816 18.9761 119.9 18.8031 120.068 18.6562C120.236 18.4989 120.488 18.4202 120.823 18.4202L121.516 18.4359V15.0847ZM135.864 23.2032C135.885 21.3781 135.503 20.1299 134.716 19.4586C134.401 19.1754 134.018 19.0338 133.567 19.0338C133.116 19.0338 132.744 19.1177 132.45 19.2855C132.157 19.4534 131.894 19.6789 131.664 19.9621C131.443 20.2453 131.255 20.5704 131.097 20.9376C130.95 21.2942 130.83 21.6613 130.735 22.0389C130.641 22.4375 130.573 22.8308 130.531 23.2189L132.686 23.3133C134.092 23.3133 135.151 23.2766 135.864 23.2032ZM130.468 24.572C130.489 26.0194 130.751 27.126 131.255 27.8917C131.8 28.7099 132.571 29.1189 133.567 29.1189C134.48 29.1189 135.146 28.6679 135.565 27.7659C135.828 27.1785 136.153 26.8848 136.541 26.8848C136.719 26.8848 136.866 26.9425 136.981 27.0579C137.107 27.1732 137.165 27.3778 137.155 27.6715C137.144 27.9547 137.039 28.2641 136.84 28.5997C136.651 28.9354 136.384 29.2343 136.037 29.4965C135.282 30.0839 134.375 30.3776 133.316 30.3776C132.172 30.3776 131.186 29.8899 130.358 28.9144C129.487 27.8865 129.052 26.6645 129.052 25.2485C129.052 23.8325 129.172 22.684 129.414 21.8029C129.665 20.9113 129.996 20.1719 130.405 19.5845C131.202 18.3992 132.199 17.8066 133.394 17.8066C134.926 17.8066 136.001 18.4097 136.62 19.616C137.05 20.4551 137.28 21.6875 137.312 23.3133C137.322 23.7748 137.249 24.0842 137.092 24.2416C136.934 24.3989 136.614 24.4776 136.132 24.4776L130.468 24.572Z" fill="#59150E"/>
</svg>
